<defs>
<font horiz-adv-x="469" ><font-face
    font-family="raleway-medium"
    units-per-em="1000"
    panose-1="2 11 0 3 3 1 1 6 0 3"
    ascent="940"
    descent="-234"
    alphabetic="0" />
<missing-glyph horiz-adv-x="0" />
<glyph unicode=";" glyph-name="NULL" horiz-adv-x="0" />
<glyph unicode="&#xd;" glyph-name="CR" horiz-adv-x="0" />
<glyph unicode=" " glyph-name="space" horiz-adv-x="251" />
<glyph unicode="!" glyph-name="exclam" horiz-adv-x="257" d="M173 240H85V717H173V240ZM173 0H85V124H173V0Z" />
<glyph unicode="&quot;" glyph-name="quotedbl" horiz-adv-x="312" d="M137 574H61V718H137V574ZM251 574H175V718H251V574Z" />
<glyph unicode="#" glyph-name="numbersign" horiz-adv-x="696" d="M657 511V447H523L480 269H613V201H464L415 0H342L392 201H224L175 0H102L152 201H39V269H168L211 447H83V511H227L275 710H348L299 511H467L515 710H588L539 511H657ZM240 269H408L451 447H283L240
269Z" />
<glyph unicode="$" glyph-name="dollar" horiz-adv-x="622" d="M551 634L509 561Q484 589 435 610T330 634V397L343 394Q467 366 525 324T583 191Q583 95 515 45T336 -7V-107H292V-6Q146 3 36 93L79 169Q111 135 170 108T297 75V314L282 318Q165 346 114 385T63
505Q63 599 126 653T292 714V815H336V714Q461 708 551 634ZM487 182Q487 231 450 257T330 306V74Q405 74 446 101T487 182ZM156 519Q156 471 188 447T297 404V634Q156 627 156 519Z" />
<glyph unicode="%" glyph-name="percent" horiz-adv-x="745" d="M261 428T197 428T88 470T43 574T88 677T197 720T306 678T351 574T306 471ZM160 476T197 476T260 505T287 574Q287 614 260 643T197 672Q160 672 134 643T107 574Q107 534 133 505ZM612 -10T548
-10T439 32T394 136T439 239T548 282T657 240T702 136T657 33ZM511 38T548 38T611 67T638 136T611 205T548 234Q511 234 485 205T458 136Q458 96 484 67ZM119 -5L77 33L357 370L625 715L668 678L391 343L119 -5Z" />
<glyph unicode="&amp;" glyph-name="ampersand" horiz-adv-x="685" d="M677 0H561L487 77Q397 -10 276 -10Q178 -10 112 46T46 188Q46 252 83 300T187 395Q137 450 117 486T97 559Q97 628 149 673T280 719Q353 719 403 679T453 574Q453 518 416 476T307 387L488
197Q528 274 528 366H601Q600 239 540 143L677 0ZM285 60Q374 60 439 128L237 341Q131 264 131 187Q131 129 176 95T285 60ZM178 561Q178 539 193 515T255 440Q316 480 344 508T372 572T346 629T280 652Q236 652 207 626T178 561Z" />
<glyph unicode="&apos;" glyph-name="quotesingle" horiz-adv-x="186" d="M131 586H55V718H131V586Z" />
<glyph unicode="(" glyph-name="parenleft" horiz-adv-x="280" d="M41 346Q41 440 77 534T183 744L251 714Q204 645 164 539T123 343Q123 190 249 -8L184 -42Q41 171 41 346Z" />
<glyph unicode=")" glyph-name="parenright" horiz-adv-x="280" d="M239 346Q239 171 96 -42L31 -8Q157 190 157 343Q157 432 117 538T29 714L97 744Q166 629 202 535T239 346Z" />
<glyph unicode="*" glyph-name="asterisk" horiz-adv-x="330" d="M121 513L84 538L128 603L59 625L72 667L142 640L139 714H190L187 640L257 667L270 625L201 603L246 538L208 513L165 580L121 513Z" />
<glyph unicode="+" glyph-name="plus" horiz-adv-x="420" d="M250 391H368V319H250V191H170V319H52V391H170V519H250V391Z" />
<glyph unicode="," glyph-name="comma" horiz-adv-x="214" d="M48 -81V-16Q73 -16 73 8V112H146V-6Q146 -45 117 -63T48 -81Z" />
<glyph unicode="-" glyph-name="hyphen" horiz-adv-x="421" d="M358 233H63V313H358V233Z" />
<glyph unicode="." glyph-name="period" horiz-adv-x="200" d="M137 0H63V112H137V0Z" />
<glyph unicode="/" glyph-name="slash" horiz-adv-x="634" d="M508 710H607L127 0H29L508 710Z" />
<glyph unicode="0" glyph-name="zero" horiz-adv-x="615" d="M561 425T561 293T489 76T308 -10Q198 -10 127 75T55 293T126 511T308 597Q417 597 489 511ZM472 194T472 293T426 453T308 515Q234 515 189 454T143 293T188 133T308 72Q380 72 426 133Z" />
<glyph unicode="1" glyph-name="one" horiz-adv-x="447" d="M298 80H425V0H66V80H208V470Q190 445 136 419T45 392V476Q83 476 141 515T208 571H298V80Z" />
<glyph unicode="2" glyph-name="two" horiz-adv-x="544" d="M493 0H48Q48 87 82 147T211 261Q225 269 258 286T308 313T346 339T377 372T387 410Q387 447 355 475T267 503Q180 503 113 422L56 486Q73 504 97 522T174 560T283 581Q373 581 427 535T482 420Q482
384 467 354T422 300T373 265T321 237Q166 161 152 80H493V0Z" />
<glyph unicode="3" glyph-name="three" horiz-adv-x="543" d="M359 236Q423 225 460 177T498 58Q498 -34 433 -90T259 -147Q184 -147 126 -119T36 -38L95 21Q144 -67 259 -67Q329 -67 368 -35T407 58Q407 122 364 159T241 196H215V270H243Q313 270 352 304T392
392Q392 443 357 470T262 497Q150 497 101 408L47 464Q73 514 134 545T271 576Q366 576 425 527T485 398Q485 337 451 292T359 236Z" />
<glyph unicode="4" glyph-name="four" horiz-adv-x="549" d="M430 -127H342V42H21V120L370 571H430V122H518V42H430V-127ZM351 435L112 122H351V435Z" />
<glyph unicode="5" glyph-name="five" horiz-adv-x="552" d="M283 314Q382 314 448 250T515 87Q515 -17 443 -83T264 -149Q189 -149 128 -113T35 -17L90 31Q118 -15 165 -43T265 -71Q334 -71 379 -27T425 86Q425 152 381 194T272 237Q180 237 130 164H51L131 571H476V490H196L153
264Q200 314 283 314Z" />
<glyph unicode="6" glyph-name="six" horiz-adv-x="606" d="M563 235Q563 133 490 62T309 -10Q193 -10 123 72T52 296Q52 501 123 608T318 715Q387 715 443 682T532 589L478 536Q456 583 413 610T317 638Q234 638 185 565T135 360Q157 412 206 443T318 474Q421
474 492 405T563 235ZM241 66T310 66T429 115T479 235Q479 304 429 353T310 403Q240 403 191 354T141 235T191 116Z" />
<glyph unicode="7" glyph-name="seven" horiz-adv-x="557" d="M90 -127L408 502H43V583H547L190 -127H90Z" />
<glyph unicode="8" glyph-name="eight" horiz-adv-x="599" d="M549 201Q549 108 476 50T297 -8Q191 -8 120 53T49 205Q49 266 88 312T182 380Q135 400 104 438T73 524Q73 609 142 659T299 710Q387 710 456 660T526 525Q526 478 495 439T415 380Q473 358 511 311T549
201ZM460 207Q460 268 410 305T298 343Q235 343 187 305T139 206T188 109T300 71T411 110T460 207ZM162 521Q162 471 204 441T299 411T393 441T436 523Q436 571 395 601T298 631T202 601T162 521Z" />
<glyph unicode="9" glyph-name="nine" horiz-adv-x="589" d="M36 326Q36 428 109 499T290 571Q406 571 476 489T547 265Q547 60 476 -47T281 -154Q212 -154 156 -121T67 -28L121 25Q143 -22 186 -49T282 -77Q365 -77 414 -4T464 201Q442 149 393 118T281 87Q178
87 107 156T36 326ZM358 495T289 495T170 446T120 326Q120 257 170 208T289 158Q359 158 408 207T458 326T408 445Z" />
<glyph unicode=":" glyph-name="colon" horiz-adv-x="211" d="M142 406H69V518H142V406ZM142 0H69V112H142V0Z" />
<glyph unicode=";" glyph-name="semicolon" horiz-adv-x="223" d="M150 406H77V518H150V406ZM52 -81V-16Q77 -16 77 8V112H150V-6Q150 -45 121 -63T52 -81Z" />
<glyph unicode="&lt;" glyph-name="less" horiz-adv-x="507" d="M33 234V280L453 533V439L161 259L453 82V-16L33 234Z" />
<glyph unicode="=" glyph-name="equal" horiz-adv-x="440" d="M373 179H68V239H373V179ZM373 313H68V373H373V313Z" />
<glyph unicode="&gt;" glyph-name="greater" horiz-adv-x="507" d="M474 280V234L54 -16V82L346 259L54 439V533L474 280Z" />
<glyph unicode="?" glyph-name="question" horiz-adv-x="482" d="M219 211H145Q145 321 229 375Q234 378 260 393T299 418T330 444T357 483T365 531Q365 585 329 615T242 646Q194 646 155 619T94 551L35 590Q61 650 118 684T244 719Q325 719 384 669T443 527Q443
459 412 423T317 351Q291 337 280 330T251 305T226 265T219 211ZM221 0H147V116H221V0Z" />
<glyph unicode="@" glyph-name="at" horiz-adv-x="829" d="M421 603Q574 603 681 498T788 222Q788 204 787 185T781 136T766 81T740 34T698 -2T639 -16Q593 -16 575 8T552 73Q485 2 382 2Q311 2 271 40T230 138Q230 210 285 243T417 277Q480 277 540 254Q540 326
514 364T419 403Q342 403 281 357L261 406Q338 457 427 457Q472 457 504 444T554 412T581 364T593 310T596 251V132Q596 80 605 54T647 28Q675 28 696 48T727 101T741 164T746 224Q746 368 653 465T419 563Q280 563 185 469T90 230Q90 89 181 -8T412 -106Q485 -106
566 -68L580 -106Q500 -146 411 -146Q260 -146 154 -39T48 230Q48 396 158 499T421 603ZM478 76Q539 104 539 171V208Q536 209 515 215T469 225T416 230Q359 230 323 209T287 142Q287 104 314 79T386 54Q432 54 478 76Z" />
<glyph unicode="A" glyph-name="A" horiz-adv-x="678" d="M107 0H11L303 710H377L668 0H572L488 208H190L107 0ZM468 278L340 606L208 278H468Z" />
<glyph unicode="B" glyph-name="B" horiz-adv-x="672" d="M630 183Q630 102 570 51T422 0H85V710H438Q510 710 555 655T600 529Q600 475 573 430T498 364Q559 346 594 298T630 183ZM539 199Q539 249 507 285T429 322H175V78H422Q471 78 505 114T539 199ZM407 632H175V395H401Q448
395 479 429T511 513Q511 564 482 598T407 632Z" />
<glyph unicode="C" glyph-name="C" horiz-adv-x="683" d="M40 360Q40 425 63 488T128 601T235 683T378 714Q470 714 539 672T642 559L571 513Q542 576 489 604T374 633Q262 633 197 549T131 356Q131 243 202 159T377 75Q438 75 494 106T580 200L655 159Q623 83
542 39T373 -6Q302 -6 239 26T133 109T65 227T40 360Z" />
<glyph unicode="D" glyph-name="D" horiz-adv-x="718" d="M331 0H85V710H331Q495 710 584 610T674 356Q674 194 581 97T331 0ZM583 356Q583 479 516 554T331 630H175V80H331Q450 80 516 157T583 356Z" />
<glyph unicode="E" glyph-name="E" horiz-adv-x="610" d="M175 80H567V0H85V710H558V630H175V400H508V325H175V80Z" />
<glyph unicode="F" glyph-name="F" horiz-adv-x="581" d="M175 0H85V710H554V630H175V393H494V318H175V0Z" />
<glyph unicode="G" glyph-name="G" horiz-adv-x="718" d="M588 0V96Q494 -5 372 -5Q281 -5 204 47T84 183T41 357Q41 503 136 609T372 715Q566 715 643 560L574 512Q543 572 490 603T370 634Q265 634 199 551T132 355Q132 240 203 158T379 76Q495 76 588 188V286H435V354H664V0H588Z"
/>
<glyph unicode="H" glyph-name="H" horiz-adv-x="741" d="M566 710H656V0H566V323H175V0H85V710H175V403H566V710Z" />
<glyph unicode="I" glyph-name="I" horiz-adv-x="260" d="M175 0H85V709H175V0Z" />
<glyph unicode="J" glyph-name="J" horiz-adv-x="489" d="M16 33L39 106Q91 70 170 70Q210 70 237 82T281 115T307 173T319 249T322 349V709H412V349Q412 277 408 228T389 130T348 53T278 7T170 -11Q80 -11 16 33Z" />
<glyph unicode="K" glyph-name="K" horiz-adv-x="649" d="M175 0H85V709H175V317L541 710H638L353 397L654 0H556L298 345L175 217V0Z" />
<glyph unicode="L" glyph-name="L" horiz-adv-x="590" d="M571 0H85V710H175V80H571V0Z" />
<glyph unicode="M" glyph-name="M" horiz-adv-x="874" d="M789 0H699V549L463 128H412L175 549V0H85V710H180L437 249L695 710H789V0Z" />
<glyph unicode="N" glyph-name="N" horiz-adv-x="770" d="M609 0L175 542V0H85V710H155L595 157V709H685V0H609Z" />
<glyph unicode="O" glyph-name="O" horiz-adv-x="751" d="M375 -5Q231 -5 136 104T41 355Q41 500 138 607T377 715Q520 715 615 605T710 354Q710 209 613 102T375 -5ZM132 355Q132 242 200 159T376 76Q484 76 551 161T619 355Q619 467 550 550T376 633Q268 633
200 549T132 355Z" />
<glyph unicode="P" glyph-name="P" horiz-adv-x="621" d="M175 0H85V710H381Q472 710 534 641T596 483Q596 392 537 324T387 255H175V0ZM175 630V335H382Q436 335 470 378T505 483T467 587T376 630H175Z" />
<glyph unicode="Q" glyph-name="Q" horiz-adv-x="752" d="M615 0L565 58Q479 -5 375 -5Q231 -4 136 104T41 355Q41 500 138 607T377 715Q520 715 615 605T710 354Q710 209 614 103L703 0H615ZM376 76Q452 76 511 121L416 232H504L558 169Q619 250 619 355Q619
467 550 550T376 634Q268 634 200 550T132 355Q132 242 200 159T376 76Z" />
<glyph unicode="R" glyph-name="R" horiz-adv-x="664" d="M175 0H85V710H389Q480 710 542 641T604 483Q604 408 563 349T455 272L627 0H525L363 255H175V0ZM175 630V335H390Q444 335 478 379T513 483T475 586T384 630H175Z" />
<glyph unicode="S" glyph-name="S" horiz-adv-x="613" d="M546 634L504 561Q477 591 424 613T311 635Q151 635 151 519Q151 466 191 442T338 394Q462 366 520 324T578 191Q578 93 507 43T320 -7Q154 -7 31 93L74 169Q110 131 178 103T322 74Q399 74 440 101T482
182Q482 237 436 264T277 318Q160 346 109 385T58 505Q58 604 128 659T313 715Q447 715 546 634Z" />
<glyph unicode="T" glyph-name="T" horiz-adv-x="616" d="M598 710V630H353V0H263V630H18V710H598Z" />
<glyph unicode="U" glyph-name="U" horiz-adv-x="753" d="M376 76Q435 76 478 99T545 163T578 250T589 351V710H679V351Q679 276 662 214T610 101T516 23T377 -5Q295 -5 235 24T140 105T90 218T74 351V710H164V351Q164 295 174 249T208 162T275 99T376 76Z" />
<glyph unicode="V" glyph-name="V" horiz-adv-x="676" d="M8 710H103L338 113L572 710H667L377 0H299L8 710Z" />
<glyph unicode="W" glyph-name="W" horiz-adv-x="1048" d="M467 397L344 706H429L523 459L618 706H703L580 397L702 104L942 710H1040L743 0H665L524 335L382 0H304L8 710H105L346 104L467 397Z" />
<glyph unicode="X" glyph-name="X" horiz-adv-x="635" d="M2 710H102L318 414L534 710H633L366 350L625 0H526L318 286L110 0H10L269 350L2 710Z" />
<glyph unicode="Y" glyph-name="Y" horiz-adv-x="637" d="M4 710H103L318 340L535 710H633L363 259V0H273V261L4 710Z" />
<glyph unicode="Z" glyph-name="Z" horiz-adv-x="624" d="M28 0V70L486 630H37V710H591V640L141 80H591V0H28Z" />
<glyph unicode="[" glyph-name="bracketleft" horiz-adv-x="264" d="M220 -40H80V740H220V668H162V32H220V-40Z" />
<glyph unicode="\" glyph-name="backslash" horiz-adv-x="590" d="M27 710H126L561 0H463L27 710Z" />
<glyph unicode="]" glyph-name="bracketright" horiz-adv-x="264" d="M184 -40H44V32H102V668H44V740H184V-40Z" />
<glyph unicode="^" glyph-name="asciicircum" horiz-adv-x="555" d="M116 303H43L241 710H315L512 303H437L278 631L116 303Z" />
<glyph unicode="_" glyph-name="underscore" horiz-adv-x="405" d="M391 -80H14V0H391V-80Z" />
<glyph unicode="`" glyph-name="grave" horiz-adv-x="232" d="M137 609L48 730H135L194 629L137 609Z" />
<glyph unicode="a" glyph-name="a" horiz-adv-x="557" d="M210 -10Q132 -10 81 36T30 150Q30 224 91 269T250 314Q331 314 396 288V330Q396 394 360 430T258 467Q179 467 92 406L63 463Q164 531 268 531Q368 531 426 476T484 321V108Q484 77 512 76V0Q486 -4 476
-4Q451 -4 431 9T410 49L408 86Q374 40 320 15T210 -10ZM232 56Q273 56 313 73T377 118Q396 140 396 159V236Q332 261 264 261T155 233T114 158Q114 116 146 86T232 56Z" />
<glyph unicode="b" glyph-name="b" horiz-adv-x="621" d="M337 -10Q277 -10 227 19T147 98V0H69V730H157V418Q230 531 350 531Q453 531 518 450T584 259Q584 148 513 69T337 -10ZM315 66Q392 66 443 124T494 259Q494 338 446 396T323 455Q270 455 226 421T157
333V182Q166 134 215 100T315 66Z" />
<glyph unicode="c" glyph-name="c" horiz-adv-x="554" d="M36 149T36 262T110 453T301 531Q377 531 434 497T521 404L435 377Q415 414 379 434T299 455Q226 455 176 400T126 262Q126 180 177 123T300 66Q345 66 386 90T439 147L525 121Q501 63 441 27T302 -10Q187
-10 112 69Z" />
<glyph unicode="d" glyph-name="d" horiz-adv-x="631" d="M285 -10Q178 -10 107 70T36 260Q36 373 103 452T273 531Q333 531 383 500T464 418V730H552V108Q552 77 580 76V0Q552 -4 545 -4Q516 -4 498 11T478 49L476 98Q445 48 394 19T285 -10ZM306 66Q355 66 405
101T464 183V333Q445 384 397 419T298 455Q223 455 175 396T127 259Q127 180 179 123T306 66Z" />
<glyph unicode="e" glyph-name="e" horiz-adv-x="591" d="M302 -10Q186 -10 111 69T36 261Q36 373 111 452T303 531Q418 531 491 453T564 265Q564 243 562 231H129Q135 155 185 106T305 56Q354 56 396 80T454 143L530 122Q504 63 442 27T302 -10ZM127 296H481Q474
370 424 417T303 465T183 418T127 296Z" />
<glyph unicode="f" glyph-name="f" horiz-adv-x="356" d="M187 0H99V392H28V461H99V533Q99 629 142 684T259 740Q323 740 374 708L352 643Q320 665 277 665T211 632T187 536V461H326V392H187V0Z" />
<glyph unicode="g" glyph-name="g" horiz-adv-x="621" d="M278 -6Q174 -6 106 73T37 260Q37 373 105 452T279 531Q398 531 474 418V522H552V6Q552 -101 477 -162T286 -223Q128 -223 49 -108L100 -63Q162 -155 286 -155Q363 -155 413 -114T464 6V98Q435 50 385
22T278 -6ZM305 66Q359 66 406 102T464 183V333Q443 386 396 420T297 455Q221 455 174 395T126 258Q126 179 178 123T305 66Z" />
<glyph unicode="h" glyph-name="h" horiz-adv-x="586" d="M522 312V0H434V292Q434 452 324 452Q271 452 223 413T157 315V0H69V730H157V410Q188 466 241 498T357 531Q522 531 522 312Z" />
<glyph unicode="i" glyph-name="i" horiz-adv-x="226" d="M157 0H69V522H157V0ZM157 620H69V730H157V620Z" />
<glyph unicode="j" glyph-name="j" horiz-adv-x="226" d="M-5 -186Q-79 -186 -125 -144L-84 -85Q-58 -108 -15 -108Q18 -108 43 -84T69 -23V522H157V-17Q157 -90 109 -138T-5 -186ZM157 620H69V730H157V620Z" />
<glyph unicode="k" glyph-name="k" horiz-adv-x="536" d="M532 0H437L257 255L157 161V0H69V730H157V250L425 521H522L314 305L532 0Z" />
<glyph unicode="l" glyph-name="l" horiz-adv-x="280" d="M71 103V730H159V135Q159 106 174 90T218 73Q243 73 272 85L286 14Q235 -7 181 -7Q130 -7 101 22T71 103Z" />
<glyph unicode="m" glyph-name="m" horiz-adv-x="920" d="M856 312V0H768V292Q768 452 663 452Q610 452 567 414T506 314V0H418V292Q418 452 314 452Q262 452 219 415T157 315V0H69V522H149V410Q181 468 232 499T347 531Q410 531 450 496T499 404Q569 531 698
531Q856 531 856 312Z" />
<glyph unicode="n" glyph-name="n" horiz-adv-x="586" d="M522 312V0H434V292Q434 452 331 452Q276 452 226 413T157 315V0H69V522H149V410Q180 465 238 498T366 531Q451 531 486 473T522 312Z" />
<glyph unicode="o" glyph-name="o" horiz-adv-x="598" d="M414 -10T299 -10T110 69T36 260T110 451T299 531Q414 531 488 452T563 260T489 69ZM126 259Q126 178 176 122T299 66T422 122T473 261Q473 342 422 398T299 455Q228 455 177 398T126 259Z" />
<glyph unicode="p" glyph-name="p" horiz-adv-x="620" d="M350 -10Q288 -10 238 21T157 103V-213H69V522H147V424Q178 473 228 502T337 531Q442 531 513 451T584 261Q584 147 518 69T350 -10ZM323 66Q398 66 446 124T494 261Q494 341 442 398T315 455Q266 455
216 420T157 338V189Q179 136 225 101T323 66Z" />
<glyph unicode="q" glyph-name="q" horiz-adv-x="620" d="M270 -10Q168 -10 102 70T36 261T108 451T283 531Q342 531 392 502T473 423V522H551V-101Q551 -132 579 -133V-209Q560 -212 537 -212Q506 -212 485 -192T463 -142V103Q391 -10 270 -10ZM300 66Q402 66
463 178V328Q454 378 405 416T302 455Q227 455 177 396T126 259Q126 179 175 123T300 66Z" />
<glyph unicode="r" glyph-name="r" horiz-adv-x="362" d="M345 525V445Q278 443 228 411T157 322V0H69V522H151V401Q179 457 223 491T316 526Q338 526 345 525Z" />
<glyph unicode="s" glyph-name="s" horiz-adv-x="493" d="M254 -10Q191 -10 130 10T25 66L63 125Q156 55 252 55Q309 55 342 78T376 141Q376 177 345 194T229 232Q127 257 89 284T50 369Q50 445 106 488T250 531Q367 531 446 462L406 409Q341 467 248 467Q197
467 165 446T133 381Q133 347 158 332T256 299Q369 272 415 242T461 149Q461 76 405 33T254 -10Z" />
<glyph unicode="t" glyph-name="t" horiz-adv-x="347" d="M319 96L340 26Q267 -7 213 -7Q162 -7 129 20T95 102V453H24V522H95V696H183V522H300V453H183V129Q184 102 200 88T242 74Q282 74 319 96Z" />
<glyph unicode="u" glyph-name="u" horiz-adv-x="603" d="M230 -10Q64 -10 64 209V522H152V226Q152 66 263 66Q318 66 365 101T435 195V522H523V108Q523 77 551 76V0Q521 -4 516 -4Q486 -4 469 10T450 49L447 112Q413 54 356 22T230 -10Z" />
<glyph unicode="v" glyph-name="v" horiz-adv-x="534" d="M314 0H220L14 522H105L270 77L436 522H520L314 0Z" />
<glyph unicode="w" glyph-name="w" horiz-adv-x="824" d="M548 87L727 522H812L590 0H517L412 255L308 0H235L13 522H97L277 87L365 304L275 521H348L412 354L476 521H549L460 304L548 87Z" />
<glyph unicode="x" glyph-name="x" horiz-adv-x="509" d="M11 522H103L246 330L254 314L263 330L405 522H498L303 260L499 0H406L263 191L254 206L246 191L103 0H10L206 260L11 522Z" />
<glyph unicode="y" glyph-name="y" horiz-adv-x="543" d="M92 -220V-143Q119 -146 140 -146Q160 -146 177 -120T230 0L9 522H100L278 79L440 522H524L268 -137Q234 -225 136 -225Q110 -225 92 -220Z" />
<glyph unicode="z" glyph-name="z" horiz-adv-x="487" d="M27 0V57L361 458H36V522H455V465L123 64H456V0H27Z" />
<glyph unicode="{" glyph-name="braceleft" horiz-adv-x="269" d="M226 668H171V424Q171 386 142 360Q171 334 171 296V41H226V-31H114Q91 -31 91 -1V270Q91 292 79 309T49 329V393Q68 393 79 412T91 450V710Q91 726 98 733T114 740H226V668Z" />
<glyph unicode="|" glyph-name="bar" horiz-adv-x="232" d="M154 -130H78V775H154V-130Z" />
<glyph unicode="}" glyph-name="braceright" horiz-adv-x="269" d="M99 668H44V740H156Q160 740 164 738T174 729T179 710V450Q179 432 190 413T221 393V329Q202 326 191 309T179 270V-1Q179 -16 172 -23T156 -31H44V41H99V296Q99 335 128 360Q99 386 99 424V668Z" />
<glyph unicode="~" glyph-name="asciitilde" horiz-adv-x="524" d="M62 237Q62 245 68 261T87 298T124 334T179 349Q212 349 264 321T344 292Q367 292 384 304T407 328T413 344H465Q465 340 462 330T449 303T426 273T391 248T343 237Q307 237 254 265T178 293Q156
293 140 279T119 253T114 237H62Z" />
<glyph unicode="&#xa0;" glyph-name="uni00A0" horiz-adv-x="251" />
<glyph unicode="&#xa1;" glyph-name="exclamdown" horiz-adv-x="258" d="M85 474H173V-3H85V474ZM85 714H173V590H85V714Z" />
<glyph unicode="&#xa2;" glyph-name="cent" horiz-adv-x="576" d="M323 -120H279V-9Q179 -1 112 79T45 258Q45 363 109 440T279 530V645H323V530Q468 526 530 404L445 377Q406 447 323 452V68Q362 71 400 93T449 147L535 121Q511 60 447 25T323 -10V-120ZM135
258Q135 191 176 138T279 72V449Q214 441 175 385T135 258Z" />
<glyph unicode="&#xa3;" glyph-name="sterling" horiz-adv-x="518" d="M54 307V375H141Q136 386 121 414T99 457T85 496T78 542Q78 614 133 664T267 715Q323 715 373 687T456 610L407 556Q383 595 344 618T265 642Q220 642 190 611T159 535Q159 511 168 487T196
427T224 375H403V307H246Q250 279 250 264Q250 215 228 171T152 69Q189 79 226 79Q254 79 298 70T366 61Q400 61 451 79L473 12Q419 -15 362 -15Q332 -15 277 -3T190 10Q135 10 76 -8L54 56Q118 116 145 163T173 260Q173 284 167 307H54Z" />
<glyph unicode="&#xa5;" glyph-name="yen" horiz-adv-x="689" d="M659 710L455 377H536V317H422L388 259V231H537V171H388V0H298V171H151V231H298V261L266 317H151V377H234L30 710H128L343 340L560 710H659Z" />
<glyph unicode="&#xa6;" glyph-name="brokenbar" horiz-adv-x="236" d="M80 273H156V-130H80V273ZM80 775H156V372H80V775Z" />
<glyph unicode="&#xa7;" glyph-name="section" horiz-adv-x="518" d="M430 201Q473 172 473 97Q473 8 408 -40T265 -88Q149 -88 61 7L118 61Q184 -4 262 -4Q309 -4 345 23T382 94Q382 125 364 143T324 167T270 174Q178 179 125 222T71 341Q71 391 95 423Q75 439
61 469T47 538Q47 613 107 664T247 715Q370 715 440 611L372 579Q341 636 252 636Q205 636 171 609T136 539Q136 451 253 449Q306 448 350 434T426 383T458 290Q458 233 430 201ZM157 330Q157 291 179 270T229 245T294 236T348 225Q374 246 374 288Q374 334 338
355T256 377T179 390Q157 368 157 330Z" />
<glyph unicode="&#xa8;" glyph-name="dieresis" horiz-adv-x="368" d="M140 624H66V726H140V624ZM302 624H228V726H302V624Z" />
<glyph unicode="&#xa9;" glyph-name="copyright" horiz-adv-x="839" d="M418 -7Q259 -7 154 96T49 355T154 612T418 715Q578 715 684 613T791 355T685 97T418 -7ZM418 31Q560 31 655 121T750 353Q750 492 656 584T418 677Q277 677 183 585T89 354T183 124T418
31ZM426 121Q326 121 257 187T187 355Q187 449 248 519T421 590Q491 590 544 560T622 474L537 447Q506 514 421 514Q354 514 316 467T277 355Q277 284 322 241T423 197Q459 197 493 216T543 267L628 241Q609 195 554 158T426 121Z" />
<glyph unicode="&#xaa;" glyph-name="ordfeminine" horiz-adv-x="437" d="M164 344Q114 344 80 376T45 455Q45 504 87 535T194 567Q250 567 290 550V575Q290 615 267 638T201 661Q149 661 88 620L65 665Q135 711 207 711Q280 711 320 674T361 567V436Q361 413
382 412V350Q367 347 355 347Q304 347 302 386L301 409Q250 344 164 344ZM184 397Q223 397 256 417T290 461V509Q256 524 206 524Q164 524 138 507T112 461Q112 434 132 416T184 397Z" />
<glyph unicode="&#xab;" glyph-name="guillemotleft" horiz-adv-x="599" d="M42 234V280L295 461V387L113 259L295 134V60L42 234ZM284 234V280L537 461V387L355 259L537 134V60L284 234Z" />
<glyph unicode="&#xac;" glyph-name="logicalnot" horiz-adv-x="597" d="M74 375H528V120H452V295H74V375Z" />
<glyph unicode="&#xad;" glyph-name="uni00AD" horiz-adv-x="580" d="M517 233H63V313H517V233Z" />
<glyph unicode="&#xae;" glyph-name="registered" horiz-adv-x="839" d="M579 -7T419 -7T154 96T49 355T154 612T419 715T685 613T791 355T685 97ZM419 30Q560 30 654 121T749 354Q749 492 655 584T419 677T184 585T91 355Q91 216 184 123T419 30ZM264 130V579H456Q513
579 552 535T592 435Q592 388 565 350T496 302L605 130H532L430 292H329V130H264ZM329 349H453Q488 349 508 373T528 435T506 496T450 520H329V349Z" />
<glyph unicode="&#xaf;" glyph-name="overscore" horiz-adv-x="403" d="M348 654H56V712H348V654Z" />
<glyph unicode="0;" glyph-name="degree" horiz-adv-x="273" d="M47 637Q47 674 72 699T136 724T199 699T225 637Q225 597 200 572T136 546T73 572T47 637ZM106 665Q94 651 94 635Q94 618 106 606Q119 593 136 593Q155 593 166 606Q178 618 178 635Q178 651
166 665Q156 677 136 677Q118 677 106 665Z" />
<glyph unicode="1;" glyph-name="plusminus" horiz-adv-x="464" d="M398 51H66V123H398V51ZM272 404H398V332H272V196H192V332H66V404H192V540H272V404Z" />
<glyph unicode="2;" glyph-name="twosuperior" horiz-adv-x="398" d="M353 320H35Q35 397 64 439T162 508Q170 511 188 518T216 528T241 539T264 552T281 567T294 586T298 609Q298 639 273 658T201 677Q126 677 75 624L39 663Q55 684 99 707T209 731Q282 731
321 698T360 608Q360 584 350 564T328 532T293 508T258 492T222 480Q122 447 122 374H353V320Z" />
<glyph unicode="3;" glyph-name="threesuperior" horiz-adv-x="397" d="M192 314Q130 314 87 337T34 400L66 438Q69 414 104 392T191 370Q239 370 271 388T303 435Q303 468 263 485T154 503H131V554H154Q289 554 289 616Q289 645 260 662T189 680Q109 680
74 626L37 669Q56 698 98 714T189 731Q257 731 302 699T348 619Q348 550 256 531Q303 524 331 495T359 427Q359 375 311 345T192 314Z" />
<glyph unicode="4;" glyph-name="acute" horiz-adv-x="232" d="M194 730L106 609L48 629L106 730H194Z" />
<glyph unicode="5;" glyph-name="mu" horiz-adv-x="610" d="M77 -212V522H165V226Q165 66 278 66Q331 66 378 101T449 195V522H537V108Q537 77 565 76V0Q535 -4 529 -4Q501 -4 484 10T464 49L461 112Q436 62 383 26T273 -10Q188 -10 160 67V-212H77Z" />
<glyph unicode="6;" glyph-name="paragraph" horiz-adv-x="615" d="M36 465Q36 581 110 645T318 710H575V642H505V-80H429V224H362V-80H286V224Q171 226 104 290T36 465ZM111 467Q111 386 160 342T286 292V642Q202 641 157 594T111 467ZM429 292V642H362V292H429Z" />
<glyph unicode="7;" glyph-name="middot" horiz-adv-x="200" d="M137 245H63V369H137V245Z" />
<glyph unicode="8;" glyph-name="cedilla" horiz-adv-x="296" d="M22 -163L42 -126Q78 -145 130 -145Q187 -145 187 -110T136 -75Q100 -75 56 -88L114 21L153 7L118 -48Q132 -43 154 -43Q190 -43 211 -59T233 -107Q233 -142 205 -162T123 -182Q71 -182 22 -163Z" />
<glyph unicode="9;" glyph-name="onesuperior" horiz-adv-x="280" d="M184 375H258V320H48V375H128V669Q116 654 86 637T33 620V675Q52 675 75 688T113 715T128 731H184V375Z" />
<glyph unicode="a;" glyph-name="ordmasculine" horiz-adv-x="447" d="M303 344T223 344T92 398T41 527Q41 604 92 657T223 711T354 658T405 527Q405 452 354 398ZM113 526Q113 475 145 440T223 405T301 440T333 528Q333 579 301 614T223 649T145 614T113 526Z" />
<glyph unicode="b;" glyph-name="guillemotright" horiz-adv-x="599" d="M557 280V234L304 60V134L486 259L304 387V461L557 280ZM315 280V234L62 60V134L244 259L62 387V461L315 280Z" />
<glyph unicode="c;" glyph-name="onequarter" horiz-adv-x="861" d="M764 0H709V100H483V153L726 406H764V154H823V100H764V0ZM711 334L540 154H711V334ZM195 375H269V320H59V375H139V669Q127 654 97 637T44 620V675Q63 675 86 688T124 715T139 731H195V375ZM189
-5L147 33L427 370L695 715L738 678L461 343L189 -5Z" />
<glyph unicode="d;" glyph-name="onehalf" horiz-adv-x="896" d="M854 0H540Q540 77 568 119T663 188Q671 191 692 199T723 212T749 224T773 241T787 261T793 288Q793 319 769 338T700 357Q627 357 578 303L544 343Q560 365 602 388T707 411Q778 411 815 378T853
287Q853 257 841 235T805 198T765 176T721 160Q625 128 625 54H854V0ZM198 375H272V320H62V375H142V669Q130 654 100 637T47 620V675Q66 675 89 688T127 715T142 731H198V375ZM155 -5L113 33L393 370L661 715L704 678L427 343L155 -5Z" />
<glyph unicode="e;" glyph-name="threequarters" horiz-adv-x="876" d="M201 314Q139 314 96 337T43 400L75 438Q78 414 113 392T200 370Q248 370 280 388T312 435Q312 468 272 485T163 503H140V554H163Q298 554 298 616Q298 645 269 662T198 680Q118 680
83 626L46 669Q65 698 107 714T198 731Q266 731 311 699T357 619Q357 550 265 531Q312 524 340 495T368 427Q368 375 320 345T201 314ZM774 0H719V100H493V153L736 406H774V154H833V100H774V0ZM721 334L550 154H721V334ZM223 -5L181 33L461 370L729 715L772 678L495
343L223 -5Z" />
<glyph unicode="f;" glyph-name="questiondown" horiz-adv-x="475" d="M260 295H334Q334 185 250 131Q245 128 219 113T180 88T149 62T122 23T114 -25Q114 -79 150 -109T237 -140Q285 -140 324 -113T385 -45L444 -84Q418 -144 361 -178T235 -213Q154 -213
95 -163T36 -21Q36 47 67 83T162 155Q188 169 199 176T228 201T253 241T260 295ZM258 506H332V390H258V506Z" />
<glyph unicode="0;" glyph-name="Agrave" horiz-adv-x="678" d="M107 0H11L303 710H377L668 0H572L488 208H190L107 0ZM468 278L340 606L208 278H468ZM325 796L236 917H323L382 816L325 796Z" />
<glyph unicode="1;" glyph-name="Aacute" horiz-adv-x="678" d="M107 0H11L303 710H377L668 0H572L488 208H190L107 0ZM468 278L340 606L208 278H468ZM443 916L355 795L297 815L355 916H443Z" />
<glyph unicode="2;" glyph-name="Acircumflex" horiz-adv-x="678" d="M107 0H11L303 710H377L668 0H572L488 208H190L107 0ZM468 278L340 606L208 278H468ZM255 802L207 826L308 916H372L473 826L425 802L340 865L255 802Z" />
<glyph unicode="3;" glyph-name="Atilde" horiz-adv-x="678" d="M107 0H11L303 710H377L668 0H572L488 208H190L107 0ZM468 278L340 606L208 278H468ZM402 813Q370 813 331 834T273 855Q253 855 241 843T227 822T224 807H172Q172 820 179 841T211 886T271
910Q300 910 338 889T400 867Q423 867 437 879T453 901T456 916H508Q508 891 482 852T402 813Z" />
<glyph unicode="4;" glyph-name="Adieresis" horiz-adv-x="678" d="M107 0H11L303 710H377L668 0H572L488 208H190L107 0ZM468 278L340 606L208 278H468ZM296 811H222V913H296V811ZM458 811H384V913H458V811Z" />
<glyph unicode="5;" glyph-name="Aring" horiz-adv-x="678" d="M107 0H11L303 710H377L668 0H572L488 208H190L107 0ZM468 278L340 606L208 278H468ZM258 816T258 847T280 897T339 916T397 897T420 847T398 797T339 778T281 797ZM339 885Q322 885 311 875T299
847Q299 831 310 820T339 809Q355 809 367 820T380 847Q380 864 369 874T339 885Z" />
<glyph unicode="6;" glyph-name="AE" horiz-adv-x="988" d="M-5 0L448 710H936V630H561V402H882V322H561V80H945V0H472V208H223L93 0H-5ZM263 288H466V605L263 288Z" />
<glyph unicode="7;" glyph-name="Ccedilla" horiz-adv-x="684" d="M277 -163L297 -126Q333 -145 385 -145Q442 -145 442 -110T391 -75Q355 -75 311 -88L355 -5Q221 3 131 113T41 360Q41 425 64 488T129 601T236 683T379 714Q471 714 540 672T643 559L572 513Q543
576 490 604T375 633Q263 633 198 549T132 356Q132 243 203 159T378 75Q439 75 495 106T581 200L656 159Q626 89 554 45T400 -5L373 -48Q387 -43 409 -43Q445 -43 466 -59T488 -107Q488 -142 460 -162T378 -182Q326 -182 277 -163Z" />
<glyph unicode="8;" glyph-name="Egrave" horiz-adv-x="610" d="M175 80H567V0H85V710H558V630H175V400H508V325H175V80ZM319 796L230 917H317L376 816L319 796Z" />
<glyph unicode="9;" glyph-name="Eacute" horiz-adv-x="610" d="M437 916L349 795L291 815L349 916H437ZM175 80H567V0H85V710H558V630H175V400H508V325H175V80Z" />
<glyph unicode="a;" glyph-name="Ecircumflex" horiz-adv-x="610" d="M249 802L201 826L302 916H366L467 826L419 802L334 865L249 802ZM175 80H567V0H85V710H558V630H175V400H508V325H175V80Z" />
<glyph unicode="b;" glyph-name="Edieresis" horiz-adv-x="610" d="M290 811H216V913H290V811ZM452 811H378V913H452V811ZM175 80H567V0H85V710H558V630H175V400H508V325H175V80Z" />
<glyph unicode="c;" glyph-name="Igrave" horiz-adv-x="260" d="M175 0H85V709H175V0ZM115 796L26 917H113L172 816L115 796Z" />
<glyph unicode="d;" glyph-name="Iacute" horiz-adv-x="260" d="M175 0H85V709H175V0ZM233 916L145 795L87 815L145 916H233Z" />
<glyph unicode="e;" glyph-name="Icircumflex" horiz-adv-x="260" d="M175 0H85V709H175V0ZM45 802L-3 826L98 916H162L263 826L215 802L130 865L45 802Z" />
<glyph unicode="f;" glyph-name="Idieresis" horiz-adv-x="260" d="M175 0H85V709H175V0ZM86 811H12V913H86V811ZM248 811H174V913H248V811Z" />
<glyph unicode="&#xd0;" glyph-name="Eth" horiz-adv-x="723" d="M336 0H90V323H33V391H90V710H336Q500 710 589 610T679 356Q679 194 586 97T336 0ZM588 356Q588 479 521 554T336 630H180V391H341V323H180V80H336Q455 80 521 157T588 356Z" />
<glyph unicode="&#xd1;" glyph-name="Ntilde" horiz-adv-x="770" d="M609 0L175 542V0H85V710H155L595 157V709H685V0H609ZM449 813Q417 813 378 834T320 855Q300 855 288 843T274 822T271 807H219Q219 820 226 841T258 886T318 910Q348 910 386 889T447 867T484
879T500 901T503 916H555Q555 891 529 852T449 813Z" />
<glyph unicode="&#xd2;" glyph-name="Ograve" horiz-adv-x="751" d="M375 -5Q231 -5 136 104T41 355Q41 500 138 607T377 715Q520 715 615 605T710 354Q710 209 613 102T375 -5ZM132 355Q132 242 200 159T376 76Q484 76 551 161T619 355Q619 467 550 550T376 633Q268
633 200 549T132 355ZM362 796L273 917H360L419 816L362 796Z" />
<glyph unicode="&#xd3;" glyph-name="Oacute" horiz-adv-x="751" d="M480 916L392 795L334 815L392 916H480ZM375 -5Q231 -5 136 104T41 355Q41 500 138 607T377 715Q520 715 615 605T710 354Q710 209 613 102T375 -5ZM132 355Q132 242 200 159T376 76Q484 76
551 161T619 355Q619 467 550 550T376 633Q268 633 200 549T132 355Z" />
<glyph unicode="&#xd4;" glyph-name="Ocircumflex" horiz-adv-x="751" d="M292 802L244 826L345 916H409L510 826L462 802L377 865L292 802ZM375 -5Q231 -5 136 104T41 355Q41 500 138 607T377 715Q520 715 615 605T710 354Q710 209 613 102T375 -5ZM132 355Q132
242 200 159T376 76Q484 76 551 161T619 355Q619 467 550 550T376 633Q268 633 200 549T132 355Z" />
<glyph unicode="&#xd5;" glyph-name="Otilde" horiz-adv-x="751" d="M375 -5Q231 -5 136 104T41 355Q41 500 138 607T377 715Q520 715 615 605T710 354Q710 209 613 102T375 -5ZM132 355Q132 242 200 159T376 76Q484 76 551 161T619 355Q619 467 550 550T376 633Q268
633 200 549T132 355ZM439 813Q407 813 368 834T310 855Q290 855 278 843T264 822T261 807H209Q209 820 216 841T248 886T308 910Q338 910 376 889T437 867T474 879T490 901T493 916H545Q545 891 519 852T439 813Z" />
<glyph unicode="&#xd6;" glyph-name="Odieresis" horiz-adv-x="751" d="M333 811H259V913H333V811ZM495 811H421V913H495V811ZM375 -5Q231 -5 136 104T41 355Q41 500 138 607T377 715Q520 715 615 605T710 354Q710 209 613 102T375 -5ZM132 355Q132 242 200 159T376
76Q484 76 551 161T619 355Q619 467 550 550T376 633Q268 633 200 549T132 355Z" />
<glyph unicode="&#xd7;" glyph-name="multiply" horiz-adv-x="467" d="M289 273L405 157L349 102L233 218L117 102L62 158L177 273L64 387L120 442L233 329L347 443L402 387L289 273Z" />
<glyph unicode="&#xd8;" glyph-name="Oslash" horiz-adv-x="752" d="M566 710H665L603 618Q653 565 681 496T710 354Q710 209 613 102T375 -5Q285 -5 212 40L185 0H87L148 91Q97 142 69 211T41 355Q41 500 138 607T377 715Q465 715 538 669L566 710ZM619 246T619
355T554 545L258 109Q311 76 376 76Q484 76 551 161ZM132 355Q132 242 197 163L492 600Q439 633 376 633Q268 633 200 549T132 355Z" />
<glyph unicode="&#xd9;" glyph-name="Ugrave" horiz-adv-x="753" d="M376 76Q435 76 478 99T545 163T578 250T589 351V710H679V351Q679 276 662 214T610 101T516 23T377 -5Q295 -5 235 24T140 105T90 218T74 351V710H164V351Q164 295 174 249T208 162T275 99T376
76ZM362 796L273 917H360L419 816L362 796Z" />
<glyph unicode="&#xda;" glyph-name="Uacute" horiz-adv-x="753" d="M480 916L392 795L334 815L392 916H480ZM376 76Q435 76 478 99T545 163T578 250T589 351V710H679V351Q679 276 662 214T610 101T516 23T377 -5Q295 -5 235 24T140 105T90 218T74 351V710H164V351Q164
295 174 249T208 162T275 99T376 76Z" />
<glyph unicode="&#xdb;" glyph-name="Ucircumflex" horiz-adv-x="753" d="M292 802L244 826L345 916H409L510 826L462 802L377 865L292 802ZM376 76Q435 76 478 99T545 163T578 250T589 351V710H679V351Q679 276 662 214T610 101T516 23T377 -5Q295 -5 235 24T140
105T90 218T74 351V710H164V351Q164 295 174 249T208 162T275 99T376 76Z" />
<glyph unicode="&#xdc;" glyph-name="Udieresis" horiz-adv-x="753" d="M333 811H259V913H333V811ZM495 811H421V913H495V811ZM376 76Q435 76 478 99T545 163T578 250T589 351V710H679V351Q679 276 662 214T610 101T516 23T377 -5Q295 -5 235 24T140 105T90 218T74
351V710H164V351Q164 295 174 249T208 162T275 99T376 76Z" />
<glyph unicode="&#xdd;" glyph-name="Yacute" horiz-adv-x="637" d="M4 710H103L318 340L535 710H633L363 259V0H273V261L4 710ZM421 916L333 795L275 815L333 916H421Z" />
<glyph unicode="&#xde;" glyph-name="Thorn" horiz-adv-x="606" d="M363 573Q454 573 516 504T578 346Q578 254 519 186T369 118H175V0H85V710H175V573H363ZM365 198Q419 198 453 242T488 346T450 449T359 493H175V198H365Z" />
<glyph unicode="&#xdf;" glyph-name="germandbls" horiz-adv-x="553" d="M239 -6V75Q325 77 375 111T425 215Q425 279 384 318T274 357H255V437H273Q321 437 351 465T381 540Q381 588 350 613T273 638Q214 638 184 600T153 503V0H69V517Q69 604 127 659T276 714Q357
714 411 669T465 553Q465 500 436 457T365 402Q435 387 475 334T516 208Q516 108 440 53T239 -6Z" />
<glyph unicode="&#xe0;" glyph-name="agrave" horiz-adv-x="557" d="M210 -10Q132 -10 81 36T30 150Q30 224 91 269T250 314Q331 314 396 288V330Q396 394 360 430T258 467Q179 467 92 406L63 463Q164 531 268 531Q368 531 426 476T484 321V108Q484 77 512 76V0Q486
-4 476 -4Q451 -4 431 9T410 49L408 86Q374 40 320 15T210 -10ZM232 56Q273 56 313 73T377 118Q396 140 396 159V236Q332 261 264 261T155 233T114 158Q114 116 146 86T232 56ZM251 609L162 730H249L308 629L251 609Z" />
<glyph unicode="&#xe1;" glyph-name="aacute" horiz-adv-x="557" d="M210 -10Q132 -10 81 36T30 150Q30 224 91 269T250 314Q331 314 396 288V330Q396 394 360 430T258 467Q179 467 92 406L63 463Q164 531 268 531Q368 531 426 476T484 321V108Q484 77 512 76V0Q486
-4 476 -4Q451 -4 431 9T410 49L408 86Q374 40 320 15T210 -10ZM232 56Q273 56 313 73T377 118Q396 140 396 159V236Q332 261 264 261T155 233T114 158Q114 116 146 86T232 56ZM369 730L281 609L223 629L281 730H369Z" />
<glyph unicode="&#xe2;" glyph-name="acircumflex" horiz-adv-x="557" d="M210 -10Q132 -10 81 36T30 150Q30 224 91 269T250 314Q331 314 396 288V330Q396 394 360 430T258 467Q179 467 92 406L63 463Q164 531 268 531Q368 531 426 476T484 321V108Q484 77 512
76V0Q486 -4 476 -4Q451 -4 431 9T410 49L408 86Q374 40 320 15T210 -10ZM232 56Q273 56 313 73T377 118Q396 140 396 159V236Q332 261 264 261T155 233T114 158Q114 116 146 86T232 56ZM181 616L133 640L234 730H298L399 640L351 616L266 679L181 616Z" />
<glyph unicode="&#xe3;" glyph-name="atilde" horiz-adv-x="557" d="M210 -10Q132 -10 81 36T30 150Q30 224 91 269T250 314Q331 314 396 288V330Q396 394 360 430T258 467Q179 467 92 406L63 463Q164 531 268 531Q368 531 426 476T484 321V108Q484 77 512 76V0Q486
-4 476 -4Q451 -4 431 9T410 49L408 86Q374 40 320 15T210 -10ZM232 56Q273 56 313 73T377 118Q396 140 396 159V236Q332 261 264 261T155 233T114 158Q114 116 146 86T232 56ZM328 627Q296 627 257 648T199 669Q179 669 167 657T153 636T150 621H98Q98 634 105
655T137 700T197 724Q226 724 264 703T326 681Q349 681 363 693T379 715T382 730H434Q434 705 408 666T328 627Z" />
<glyph unicode="&#xe4;" glyph-name="adieresis" horiz-adv-x="557" d="M210 -10Q132 -10 81 36T30 150Q30 224 91 269T250 314Q331 314 396 288V330Q396 394 360 430T258 467Q179 467 92 406L63 463Q164 531 268 531Q368 531 426 476T484 321V108Q484 77 512
76V0Q486 -4 476 -4Q451 -4 431 9T410 49L408 86Q374 40 320 15T210 -10ZM232 56Q273 56 313 73T377 118Q396 140 396 159V236Q332 261 264 261T155 233T114 158Q114 116 146 86T232 56ZM222 624H148V726H222V624ZM384 624H310V726H384V624Z" />
<glyph unicode="&#xe5;" glyph-name="aring" horiz-adv-x="557" d="M210 -10Q132 -10 81 36T30 150Q30 224 91 269T250 314Q331 314 396 288V330Q396 394 360 430T258 467Q179 467 92 406L63 463Q164 531 268 531Q368 531 426 476T484 321V108Q484 77 512 76V0Q486
-4 476 -4Q451 -4 431 9T410 49L408 86Q374 40 320 15T210 -10ZM232 56Q273 56 313 73T377 118Q396 140 396 159V236Q332 261 264 261T155 233T114 158Q114 116 146 86T232 56ZM184 630T184 661T206 711T265 730T323 711T346 661T324 611T265 592T207 611ZM265
699Q248 699 237 689T225 661Q225 645 236 634T265 623Q281 623 293 634T306 661Q306 678 295 688T265 699Z" />
<glyph unicode="&#xe6;" glyph-name="ae" horiz-adv-x="934" d="M206 -10Q132 -10 82 37T32 153Q32 224 93 269T251 314Q318 314 380 294Q384 336 394 360Q386 411 351 439T259 467Q181 467 93 406L64 463Q167 531 267 531Q396 531 448 436Q521 531 643 531Q759
531 833 453T908 261Q908 243 906 231H463Q469 155 522 106T649 56Q698 56 740 80T798 143L874 122Q848 63 786 27T646 -10Q577 -10 520 20T428 103Q397 47 334 19T206 -10ZM229 56Q276 56 316 73T379 120Q396 137 398 155Q382 187 380 242Q323 261 264 261Q198
261 157 233T115 160Q115 116 148 86T229 56ZM462 288H824Q818 366 767 415T642 465T518 415T462 288Z" />
<glyph unicode="&#xe7;" glyph-name="ccedilla" horiz-adv-x="556" d="M205 -163L225 -126Q261 -145 313 -145Q370 -145 370 -110T319 -75Q283 -75 239 -88L281 -9Q174 -1 106 77T37 262Q37 375 111 453T302 531Q378 531 435 497T522 404L436 377Q416 414 380
434T300 455Q227 455 177 400T127 262Q127 180 178 123T301 66Q346 66 387 90T440 147L526 121Q504 68 450 33T326 -9L301 -48Q315 -43 337 -43Q373 -43 394 -59T416 -107Q416 -142 388 -162T306 -182Q254 -182 205 -163Z" />
<glyph unicode="&#xe8;" glyph-name="egrave" horiz-adv-x="591" d="M302 -10Q186 -10 111 69T36 261Q36 373 111 452T303 531Q418 531 491 453T564 265Q564 243 562 231H129Q135 155 185 106T305 56Q354 56 396 80T454 143L530 122Q504 63 442 27T302 -10ZM127
296H481Q474 370 424 417T303 465T183 418T127 296ZM284 609L195 730H282L341 629L284 609Z" />
<glyph unicode="&#xe9;" glyph-name="eacute" horiz-adv-x="591" d="M402 730L314 609L256 629L314 730H402ZM302 -10Q186 -10 111 69T36 261Q36 373 111 452T303 531Q418 531 491 453T564 265Q564 243 562 231H129Q135 155 185 106T305 56Q354 56 396 80T454
143L530 122Q504 63 442 27T302 -10ZM127 296H481Q474 370 424 417T303 465T183 418T127 296Z" />
<glyph unicode="&#xea;" glyph-name="ecircumflex" horiz-adv-x="591" d="M214 616L166 640L267 730H331L432 640L384 616L299 679L214 616ZM302 -10Q186 -10 111 69T36 261Q36 373 111 452T303 531Q418 531 491 453T564 265Q564 243 562 231H129Q135 155 185
106T305 56Q354 56 396 80T454 143L530 122Q504 63 442 27T302 -10ZM127 296H481Q474 370 424 417T303 465T183 418T127 296Z" />
<glyph unicode="&#xeb;" glyph-name="edieresis" horiz-adv-x="591" d="M255 624H181V726H255V624ZM417 624H343V726H417V624ZM302 -10Q186 -10 111 69T36 261Q36 373 111 452T303 531Q418 531 491 453T564 265Q564 243 562 231H129Q135 155 185 106T305 56Q354
56 396 80T454 143L530 122Q504 63 442 27T302 -10ZM127 296H481Q474 370 424 417T303 465T183 418T127 296Z" />
<glyph unicode="&#xec;" glyph-name="igrave" horiz-adv-x="226" d="M157 0H69V522H157V0ZM98 609L9 730H96L155 629L98 609Z" />
<glyph unicode="&#xed;" glyph-name="iacute" horiz-adv-x="226" d="M216 730L128 609L70 629L128 730H216ZM157 0H69V522H157V0Z" />
<glyph unicode="&#xee;" glyph-name="icircumflex" horiz-adv-x="226" d="M28 616L-20 640L81 730H145L246 640L198 616L113 679L28 616ZM157 0H69V522H157V0Z" />
<glyph unicode="&#xef;" glyph-name="idieresis" horiz-adv-x="226" d="M69 624H-5V726H69V624ZM231 624H157V726H231V624ZM157 0H69V522H157V0Z" />
<glyph unicode="&#xf0;" glyph-name="eth" horiz-adv-x="606" d="M477 713L504 676L426 630Q498 554 531 464T565 290Q565 155 487 73T296 -10Q190 -10 114 61T38 233Q38 332 109 402T282 473Q344 473 396 445T475 368Q453 499 359 596L252 532L225 569L324 628Q265
680 176 730H300Q351 700 393 662L477 713ZM128 303T128 233T178 115T299 66Q372 66 423 117T475 239Q475 308 425 354T303 401Q230 401 179 352Z" />
<glyph unicode="&#xf1;" glyph-name="ntilde" horiz-adv-x="586" d="M522 312V0H434V292Q434 452 331 452Q276 452 226 413T157 315V0H69V522H149V410Q180 465 238 498T366 531Q451 531 486 473T522 312ZM363 627Q331 627 292 648T234 669Q214 669 202 657T188
636T185 621H133Q133 634 140 655T172 700T232 724Q262 724 300 703T361 681T398 693T414 715T417 730H469Q469 705 443 666T363 627Z" />
<glyph unicode="&#xf2;" glyph-name="ograve" horiz-adv-x="598" d="M414 -10T299 -10T110 69T36 260T110 451T299 531Q414 531 488 452T563 260T489 69ZM126 259Q126 178 176 122T299 66T422 122T473 261Q473 342 422 398T299 455Q228 455 177 398T126 259ZM285
609L196 730H283L342 629L285 609Z" />
<glyph unicode="&#xf3;" glyph-name="oacute" horiz-adv-x="598" d="M402 730L314 609L256 629L314 730H402ZM414 -10T299 -10T110 69T36 260T110 451T299 531Q414 531 488 452T563 260T489 69ZM126 259Q126 178 176 122T299 66T422 122T473 261Q473 342 422 398T299
455Q228 455 177 398T126 259Z" />
<glyph unicode="&#xf4;" glyph-name="ocircumflex" horiz-adv-x="598" d="M214 616L166 640L267 730H331L432 640L384 616L299 679L214 616ZM414 -10T299 -10T110 69T36 260T110 451T299 531Q414 531 488 452T563 260T489 69ZM126 259Q126 178 176 122T299 66T422
122T473 261Q473 342 422 398T299 455Q228 455 177 398T126 259Z" />
<glyph unicode="&#xf5;" glyph-name="otilde" horiz-adv-x="598" d="M414 -10T299 -10T110 69T36 260T110 451T299 531Q414 531 488 452T563 260T489 69ZM126 259Q126 178 176 122T299 66T422 122T473 261Q473 342 422 398T299 455Q228 455 177 398T126 259ZM362
627Q330 627 291 648T233 669Q213 669 201 657T187 636T184 621H132Q132 634 139 655T171 700T231 724Q260 724 298 703T360 681Q383 681 397 693T413 715T416 730H468Q468 705 442 666T362 627Z" />
<glyph unicode="&#xf6;" glyph-name="odieresis" horiz-adv-x="598" d="M255 624H181V726H255V624ZM417 624H343V726H417V624ZM414 -10T299 -10T110 69T36 260T110 451T299 531Q414 531 488 452T563 260T489 69ZM126 259Q126 178 176 122T299 66T422 122T473 261Q473
342 422 398T299 455Q228 455 177 398T126 259Z" />
<glyph unicode="&#xf7;" glyph-name="divide" horiz-adv-x="527" d="M301 405H226V507H301V405ZM301 66H226V168H301V66ZM465 251H62V323H465V251Z" />
<glyph unicode="&#xf8;" glyph-name="oslash" horiz-adv-x="598" d="M80 -2L125 54Q36 133 36 260Q36 372 110 451T299 531Q375 531 437 493L461 524H517L472 467Q563 386 563 260Q563 148 489 69T299 -10Q221 -10 159 29L135 -2H80ZM299 66Q371 66 422 122T473
261Q473 342 420 400L208 94Q248 66 299 66ZM126 259Q126 175 178 120L389 427Q345 455 299 455Q228 455 177 398T126 259Z" />
<glyph unicode="&#xf9;" glyph-name="ugrave" horiz-adv-x="603" d="M230 -10Q64 -10 64 209V522H152V226Q152 66 263 66Q318 66 365 101T435 195V522H523V108Q523 77 551 76V0Q521 -4 516 -4Q486 -4 469 10T450 49L447 112Q413 54 356 22T230 -10ZM278 609L189
730H276L335 629L278 609Z" />
<glyph unicode="&#xfa;" glyph-name="uacute" horiz-adv-x="603" d="M395 730L307 609L249 629L307 730H395ZM230 -10Q64 -10 64 209V522H152V226Q152 66 263 66Q318 66 365 101T435 195V522H523V108Q523 77 551 76V0Q521 -4 516 -4Q486 -4 469 10T450 49L447
112Q413 54 356 22T230 -10Z" />
<glyph unicode="&#xfb;" glyph-name="ucircumflex" horiz-adv-x="603" d="M207 616L159 640L260 730H324L425 640L377 616L292 679L207 616ZM230 -10Q64 -10 64 209V522H152V226Q152 66 263 66Q318 66 365 101T435 195V522H523V108Q523 77 551 76V0Q521 -4 516
-4Q486 -4 469 10T450 49L447 112Q413 54 356 22T230 -10Z" />
<glyph unicode="&#xfc;" glyph-name="udieresis" horiz-adv-x="603" d="M248 624H174V726H248V624ZM410 624H336V726H410V624ZM230 -10Q64 -10 64 209V522H152V226Q152 66 263 66Q318 66 365 101T435 195V522H523V108Q523 77 551 76V0Q521 -4 516 -4Q486 -4 469
10T450 49L447 112Q413 54 356 22T230 -10Z" />
<glyph unicode="&#xfd;" glyph-name="yacute" horiz-adv-x="543" d="M92 -220V-143Q119 -146 140 -146Q160 -146 177 -120T230 0L9 522H100L278 79L440 522H524L268 -137Q234 -225 136 -225Q110 -225 92 -220ZM381 730L293 609L235 629L293 730H381Z" />
<glyph unicode="&#xfe;" glyph-name="thorn" horiz-adv-x="601" d="M566 257Q564 147 489 65T308 -18Q259 -18 219 4T159 60V-213H69V710H159V449Q219 534 317 534Q427 534 496 449T566 257ZM476 258Q476 338 430 396T312 454Q215 454 159 344V173Q159 132 208
97T306 62Q378 62 427 120T476 258Z" />
<glyph unicode="&#xff;" glyph-name="ydieresis" horiz-adv-x="543" d="M92 -220V-143Q119 -146 140 -146Q160 -146 177 -120T230 0L9 522H100L278 79L440 522H524L268 -137Q234 -225 136 -225Q110 -225 92 -220ZM234 624H160V726H234V624ZM396 624H322V726H396V624Z" />
</font>
</defs>
</svg>
